<svg width="20" height="24" viewBox="0 0 20 24" fill="none" xmlns="http://www.w3.org/2000/svg">
<path id="Vector" d="M18.9762 0.250147C18.6639 0.0770601 18.3109 -0.00923943 17.9539 0.000212585C17.5969 0.0096646 17.249 0.114523 16.9463 0.303897L2 9.6539V1.00015C2 0.73493 1.89464 0.480577 1.70711 0.29304C1.51957 0.105504 1.26522 0.000146781 1 0.000146781C0.734784 0.000146781 0.48043 0.105504 0.292893 0.29304C0.105357 0.480577 0 0.73493 0 1.00015V23.0001C0 23.2654 0.105357 23.5197 0.292893 23.7073C0.48043 23.8948 0.734784 24.0001 1 24.0001C1.26522 24.0001 1.51957 23.8948 1.70711 23.7073C1.89464 23.5197 2 23.2654 2 23.0001V14.3464L16.9463 23.6939C17.2472 23.8829 17.5933 23.9879 17.9485 23.9982C18.3038 24.0085 18.6553 23.9237 18.9667 23.7524C19.2782 23.5812 19.5382 23.3299 19.7199 23.0244C19.9015 22.719 19.9982 22.3705 20 22.0151V1.98515C20 1.63086 19.905 1.28305 19.7249 0.977922C19.5449 0.672791 19.2864 0.421483 18.9762 0.250147ZM18 22.0001L2.02 12.0001L18 2.0089V22.0001Z" fill="#F1F4FE"/>
</svg>
